<svg width="512" height="512" viewBox="0 0 512 512" fill="none" xmlns="http://www.w3.org/2000/svg">
  <rect width="512" height="512" rx="112" fill="#020617"/>
  <circle cx="256" cy="256" r="164" fill="#0F172A" stroke="#EAB308" stroke-width="18"/>
  <path d="M256 134C221 190 188 240 188 294C188 338 218 370 256 370C294 370 324 338 324 294C324 240 291 190 256 134Z" fill="#EAB308"/>
  <path d="M256 180C236 222 220 258 220 294C220 316 235 334 256 334C277 334 292 316 292 294C292 258 276 222 256 180Z" fill="#020617" opacity="0.55"/>
</svg>